<?xml version="1.0" encoding="UTF-8" standalone="no"?><!DOCTYPE svg PUBLIC "-//W3C//DTD SVG 1.1//EN" "http://www.w3.org/Graphics/SVG/1.1/DTD/svg11.dtd"><svg width="100%" height="100%" viewBox="0 0 30 30" version="1.1" xmlns="http://www.w3.org/2000/svg" xmlns:xlink="http://www.w3.org/1999/xlink" xml:space="preserve" style="fill-rule:evenodd;clip-rule:evenodd;stroke-linejoin:round;stroke-miterlimit:1.41421;"><path d="M27.243,2.273c8.148,0.087 -3.244,36.459 -14.87,22.099c-0.178,-0.266 -0.592,-0.799 -1.036,-1.421l-1.717,-2.368c0,0 0,-0.029 -0.029,-0.029c-1.48,-2.161 -3.73,-5.121 -4.736,-6.276l-0.148,-0.148c-1.066,-1.154 -1.865,-0.828 -1.924,0.948c-0.06,2.516 0.74,5.831 2.634,7.222c0.059,0.059 0.118,0.089 0.178,0.118c0.799,0.415 1.628,0.415 2.456,-0.207c0.237,-0.177 0.592,-0.562 1.066,-1.125c0.237,0.74 0.74,1.628 1.302,2.487c-0.325,0.207 -0.592,0.385 -0.858,0.473c-5.506,2.22 -9.59,-6.275 -9.561,-12.787c0.03,-0.414 0.03,-0.769 0.089,-1.065l0,-0.06c0,-0.022 0.004,-0.04 0.009,-0.057l0.011,-0.033c0.005,-0.017 0.01,-0.035 0.01,-0.058l0,-0.059c0.296,-1.45 1.124,-1.805 2.249,-1.45c0.03,0.029 0.03,0.029 0.059,0.029c0.03,0 0.089,0.03 0.119,0.03c0.029,0.03 0.089,0.03 0.118,0.059c0,0.03 0,0.03 0.03,0.03c2.634,1.065 6.66,5.446 9.235,8.643l0.059,0.059c7.673,-11.079 12.515,-15.052 15.223,-15.054l0.032,0Zm-4.176,8.26c-1,0.012 -2.354,0.774 -4.33,2.828c-0.592,0.651 -1.214,1.361 -1.835,2.161c-0.947,1.184 -1.924,2.516 -2.871,3.936l0.029,0.03c0.148,0.089 0.267,0.207 0.415,0.326c0.207,0.177 0.414,0.325 0.621,0.473c0.711,0.503 1.569,0.918 2.457,1.095c0.474,0.06 0.977,0.089 1.539,0.03c0.859,-0.118 1.776,-0.503 2.664,-1.273c0.207,-0.177 0.415,-0.385 0.622,-0.592l0.027,-0.035c2.347,-3.027 3.103,-8.491 1.098,-8.934c-0.13,-0.029 -0.266,-0.045 -0.409,-0.045l-0.027,0Z" style="fill:#807F80;"/></svg>
